<svg xmlns="http://www.w3.org/2000/svg" width="15.827" height="15.826"><path fill="#222" d="M14.7 0H1.127A1.135 1.135 0 000 1.141v13.544a1.135 1.135 0 001.127 1.141H14.7a1.138 1.138 0 001.13-1.141V1.141A1.138 1.138 0 0014.7 0zM4.783 13.565H2.438V6.012h2.349v7.552zM3.611 4.981a1.36 1.36 0 111.36-1.36 1.361 1.361 0 01-1.36 1.36zm9.966 8.584h-2.346V9.891c0-.876-.018-2-1.219-2-1.222 0-1.41.954-1.41 1.939v3.737H6.257V6.012h2.25v1.032h.032a2.471 2.471 0 012.222-1.219c2.374 0 2.816 1.565 2.816 3.6z"/></svg>