<svg xmlns="http://www.w3.org/2000/svg" width="19.147" height="18.725"><path fill="#5cbe5e" d="M5.329 1.517L3.955.144A10.011 10.011 0 00-.001 7.682h1.92a8.11 8.11 0 013.41-6.165zm11.9 6.165h1.92A10.072 10.072 0 0015.193.144l-1.366 1.373a8.158 8.158 0 013.4 6.165zm-1.892.48c0-2.948-1.575-5.416-4.321-6.069V1.44a1.44 1.44 0 10-2.881 0v.653c-2.758.657-4.323 3.112-4.323 6.069v4.8l-1.92 1.92v.96h15.363v-.96l-1.92-1.92zM9.574 18.725a1.682 1.682 0 00.381-.039 1.948 1.948 0 001.385-1.136 1.928 1.928 0 00.144-.749h-3.84a1.934 1.934 0 001.93 1.924z"/></svg>