<svg xmlns="http://www.w3.org/2000/svg" width="63.18" height="43.94" transform="skewX(10)"><path fill="#fff" d="M9.36 43.94c5.98 0 11.96-6.24 11.96-11.7 0-3.9-2.86-6.5-7.02-6.76-1.82 0-2.86-.52-2.6-2.08 1.56-6.76 10.92-13.78 16.38-16.38 2.6-1.04 4.68-2.86 4.68-4.42 0-2.08-2.6-2.6-4.16-2.6-2.86 0-9.1 2.6-12.48 5.2C7.02 10.66 0 21.32 0 30.42c0 6.5 3.64 13.52 9.36 13.52zm30.94 0c5.72 0 11.18-7.02 11.18-11.96 0-3.64-3.12-6.24-6.5-6.5-2.34-.26-3.38-1.04-2.34-3.38C44.46 17.16 52 10.14 57.98 7.8c1.82-1.04 5.2-2.86 5.2-4.94 0-1.82-2.6-2.34-4.42-2.34-2.34 0-7.28 1.82-10.92 4.42-9.62 5.98-17.16 14.56-17.16 26 0 5.72 2.86 13 9.62 13z"/></svg>