<svg xmlns="http://www.w3.org/2000/svg" width="82.977" height="68.682"><defs><style>.cls-1{fill:#3c9548}</style></defs><g id="icn-safety-system-management" transform="translate(-918.587 -476.543)"><g id="Group_907"><path id="Path_5668" d="M993.729 515.554a2.5 2.5 0 00-1.479-2.232l-32.9-19a6.049 6.049 0 00-5.508.027l-33.775 19.658a2.633 2.633 0 00-1.478 2.2l-.006 7.23a2.6 2.6 0 001.487 2.133l1.908 1.1v1.929a1 1 0 002 0v-.775l6.551 3.782v2.019a1 1 0 002 0v-.864l6.551 3.781v1.833a1 1 0 002 0v-.678l6.55 3.781v2.008a1 1 0 002 0v-.853l3.345 1.93a5.974 5.974 0 002.723.654 6.15 6.15 0 002.8-.68l4.409-2.566v1.038a1 1 0 002 0v-2.2l6.556-3.809v.9a1 1 0 002 0v-2.066l6.55-3.812v1.128a1 1 0 002 0v-2.292l6.551-3.813v1.076a1 1 0 002 0v-2.24l1.709-.995a2.626 2.626 0 001.471-2.193l.01-7.143zm-1.981 7.051a.592.592 0 01-.348.487l-.987.575a2.608 2.608 0 00-1.108-1.407l-2.156-1.292a1 1 0 00-1.027 1.716l2.152 1.29a.6.6 0 01.29.515v.253l-6.719 3.91a2.6 2.6 0 00-1.09-1.366l-2.156-1.295a1 1 0 00-1.03 1.715l2.154 1.294a.6.6 0 01.29.515v.2l-6.644 3.865a2.62 2.62 0 00-1.163-1.546l-2.154-1.3a1 1 0 00-1.033 1.713l2.154 1.3a.6.6 0 01.29.515v.427l-6.69 3.893a2.6 2.6 0 00-1.122-1.437l-2.152-1.295a1 1 0 00-1.031 1.714l2.153 1.295a.6.6 0 01.291.514v.291l-5.367 3.123a4 4 0 01-3.612.024l-4.3-2.481v-.478a.6.6 0 01.293-.515l2.154-1.3a1 1 0 00-1.034-1.712l-2.152 1.3a2.616 2.616 0 00-1.178 1.6l-6.633-3.83v-.653a.6.6 0 01.291-.515l2.155-1.3a1 1 0 10-1.033-1.713l-2.154 1.3a2.6 2.6 0 00-1.2 1.762l-6.613-3.817v-.468a.6.6 0 01.292-.514l2.154-1.3a1 1 0 10-1.033-1.713l-2.154 1.3a2.606 2.606 0 00-1.174 1.589l-6.636-3.831v-.558a.6.6 0 01.289-.514l2.157-1.3a1 1 0 10-1.032-1.713l-2.159 1.3a2.609 2.609 0 00-1.182 1.672l-1.022-.59-.1-.049a.6.6 0 01-.353-.412l.005-7.055a.6.6 0 01.352-.493l33.867-19.703a4.051 4.051 0 011.836-.439 3.9 3.9 0 011.761.415l32.9 19 .117.058a.506.506 0 01.311.509l.026.005z" class="cls-1"/><path id="Path_5669" d="M982.884 515.215l-25.177-14.534a2.828 2.828 0 00-2.585.027l-24.958 14.506a1.51 1.51 0 00-.824.9 1.5 1.5 0 00.827 1.855l25.175 14.531a2.76 2.76 0 001.252.3 2.941 2.941 0 001.333-.325l24.973-14.513a1.5 1.5 0 00-.014-2.747zm-25.912 15.5a.8.8 0 01-.678.026l-24.514-14.153 24.3-14.124a.789.789 0 01.677-.025l24.518 14.155z" class="cls-1"/><path id="Path_5670" d="M943.824 518.208a1 1 0 001.367.362l14.476-8.409a1 1 0 00-1.005-1.73l-14.475 8.41a1 1 0 00-.363 1.367z" class="cls-1"/><path id="Path_5671" d="M953.027 524.156a1 1 0 00.866.5 1.009 1.009 0 00.5-.135l14.473-8.413a1 1 0 00-1.006-1.729l-14.472 8.412a1 1 0 00-.361 1.365z" class="cls-1"/></g><g id="Group_80"><path id="Path_5649" d="M989.3 504.475a.863.863 0 01-.453-.129l-4.662-2.9-.012-.008a15.2 15.2 0 01-7.134-12.717V477.4a.857.857 0 01.856-.857.846.846 0 01.344.073l2.247.989a8.759 8.759 0 006.4-.038l2.061-.945a.854.854 0 01.7-.006l2.26.991a8.757 8.757 0 006.4-.043l2.048-.942a.856.856 0 011.213.778v11.321a15.2 15.2 0 01-7.134 12.717l-.012.008-4.662 2.9a.858.858 0 01-.46.129zm-4.2-4.482l4.2 2.618 4.2-2.618a13.49 13.49 0 006.345-11.275v-9.989l-.853.392-.035.015a10.481 10.481 0 01-7.7.053l-.032-.013-1.925-.844-1.73.793-.034.015a10.481 10.481 0 01-7.7.047l-.032-.013-1.063-.468v10.009a13.492 13.492 0 006.355 11.277zm8.865.723" class="cls-1"/><path id="Path_5650" d="M987.052 493.531a.859.859 0 01-.6-.251l-2.6-2.6a.856.856 0 011.211-1.21l2 2 6.979-6.98a.856.856 0 011.211 1.21l-7.585 7.585a.861.861 0 01-.616.246z" class="cls-1"/></g></g></svg>