<svg xmlns="http://www.w3.org/2000/svg" width="23.663" height="19.176"><path fill="#fff" d="M23.663 2.294a7.558 7.558 0 01-.549.743 9.181 9.181 0 01-1.77 1.675l-.082.154a13.1 13.1 0 01-.107 2.147 14.362 14.362 0 01-3.921 8.125 13.045 13.045 0 01-6.687 3.711 14.929 14.929 0 01-2.7.317q-.219.007-.437.007a13.568 13.568 0 01-7.292-2.09l-.117-.072a10.76 10.76 0 001.138.061 9.841 9.841 0 003.708-.723A9.611 9.611 0 007.158 15a4.8 4.8 0 01-4.476-3.36 4.72 4.72 0 00.9.087 5.1 5.1 0 001.176-.141l.073-.036a4.818 4.818 0 01-3.823-4.792 4.77 4.77 0 002.152.58A4.851 4.851 0 011.747.899a13.72 13.72 0 009.943 5.063c-.026-.2-.051-.362-.077-.534A4.9 4.9 0 0115.648.075 5.345 5.345 0 0116.529 0a4.672 4.672 0 013.348 1.425.257.257 0 00.178.083.3.3 0 00.075-.011A9.56 9.56 0 0022.955.42l.064-.036a4.777 4.777 0 01-2.058 2.636 9.367 9.367 0 002.702-.726z"/></svg>