<svg xmlns="http://www.w3.org/2000/svg" width="15.827" height="15.826"><path fill="#222" d="M14.131 0H1.7A1.7 1.7 0 000 1.696V14.13a1.7 1.7 0 001.7 1.7h12.431a1.7 1.7 0 001.7-1.7V1.696A1.7 1.7 0 0014.131 0zM12.4 5.61c.007.1.007.2.007.3a6.547 6.547 0 01-6.592 6.592 6.562 6.562 0 01-3.558-1.039 4.882 4.882 0 00.558.028 4.646 4.646 0 002.876-.989 2.32 2.32 0 01-2.166-1.607 2.5 2.5 0 001.05-.045A2.317 2.317 0 012.72 6.578V6.55a2.316 2.316 0 001.046.293 2.312 2.312 0 01-1.032-1.929 2.288 2.288 0 01.314-1.169 6.579 6.579 0 004.777 2.423 2.322 2.322 0 013.953-2.118 4.54 4.54 0 001.47-.558 2.311 2.311 0 01-1.017 1.275 4.611 4.611 0 001.335-.36A4.877 4.877 0 0112.4 5.61z"/></svg>