<svg xmlns="http://www.w3.org/2000/svg" width="63.645" height="54.057" viewBox="0 0 63.645 54.057">
    <g>
        <g>
            <path fill="#3c9548" d="M1106.691 540.332a1.621 1.621 0 0 1-.2-.012 1.756 1.756 0 0 1-1.545-1.935l.021-2.05a.771.771 0 0 0-.455-.636l-.544-.216a1.426 1.426 0 0 0-1.128.138l-3.572 2.337a2.669 2.669 0 0 1-2.967-.123l-2.017-1.627a.885.885 0 0 0-.855-.064l-2.273 1.162a4.622 4.622 0 0 1-2.741.353l-2.4-.556a3.358 3.358 0 0 1-2.182-1.9l-.32-.862a4.112 4.112 0 0 0-.994-1.412l-3-2.555a1.079 1.079 0 0 0-.961-.137l-1.321.511 1.07 1.215a1.54 1.54 0 0 1-.987 2.657l-3.384.468a6.487 6.487 0 0 1-2.623-.259l-6.2-2.218a6.757 6.757 0 0 0-1.888-.316l-4 .015a5.141 5.141 0 0 0-1.772.4l-2.149 1.005a1 1 0 0 1-1.423-.907 1.165 1.165 0 0 1 .025-.242l1.557-6.733-.935-2.469a1 1 0 0 1-.02-.647l2.477-8.1-3.507-3.992a1 1 0 0 1-.249-.66v-3.228l-2.781-4.737a.991.991 0 0 1-.137-.48l-.311-12.141a1 1 0 0 1 .937-1.024l32.885-2.078a.981.981 0 0 1 .815.338 1 1 0 0 1 .231.849l-.577 3 2.906 4.543a1 1 0 0 1 .109.848l-1.734 5.338a1.019 1.019 0 0 1-.154.3l-4.585 6.039-.069 4.541c5.434-.424 17.417-1.5 20.14-1.784a1.008 1.008 0 0 1 .926.427 1 1 0 0 1 .069 1.017l-1.364 2.706.552 2.359 2 .88a1 1 0 0 1 .523.536l1.791 4.377a1 1 0 0 1-.254 1.12 9.2 9.2 0 0 0-.763.781l-.814.967a.1.1 0 0 0 .012.147l.625.5a.519.519 0 0 0 .579-.02l3.122-2.386a1.618 1.618 0 0 1 2.734 1.1l.289 1.856a3.42 3.42 0 0 1-.918 2.733l-1.326 1.235 3.808 2.157.019.011a2.3 2.3 0 0 1 .965 2.826l-.624 1.471a3.911 3.911 0 0 1-2.059 1.943l-3.435 1.168a1.759 1.759 0 0 1-.67.132zm.254-1.834zm-.356-.144zm-3.01-4.925a3.388 3.388 0 0 1 1.085.178l.644.256a2.79 2.79 0 0 1 1.663 2.449l-.023 1.915 3.155-1.071a1.872 1.872 0 0 0 .936-.9l.591-1.4a.3.3 0 0 0-.132-.348l-3.994-2.267a1.781 1.781 0 0 1-.276-2.988l1.382-1.293a1.366 1.366 0 0 0 .339-1.057l-.207-1.323-2.77 2.116a2.538 2.538 0 0 1-2.983-.008l-.655-.526a2.1 2.1 0 0 1-.333-2.947l.863-1.028c.141-.162.284-.319.432-.47l-1.382-3.377-2.09-.918a1 1 0 0 1-.571-.688l-.749-3.2a1 1 0 0 1 .081-.679l.71-1.407c-4.773.452-15.419 1.4-19.477 1.695a1 1 0 0 1-1.072-1.013l.091-5.964a.994.994 0 0 1 .2-.589l4.682-6.165 1.535-4.728-2.867-4.48a1 1 0 0 1-.14-.729l.409-2.124-30.636 1.936.281 10.919 2.8 4.755a1.012 1.012 0 0 1 .137.507v3.132l3.626 4.127a1 1 0 0 1 .2.953l-2.54 8.31.921 2.433a1.008 1.008 0 0 1 .039.58l-1.167 5.047.328-.153a7.225 7.225 0 0 1 2.54-.576l4.068-.016a8.832 8.832 0 0 1 2.511.423l6.194 2.215a4.464 4.464 0 0 0 1.752.169l2.623-.363-.762-.867a1.739 1.739 0 0 1 .711-2.9l1.617-.624a3.123 3.123 0 0 1 2.885.466l3.068 2.616a6.181 6.181 0 0 1 1.528 2.179l.312.846a1.323 1.323 0 0 0 .836.7l2.291.532a2.552 2.552 0 0 0 1.476-.2l2.275-1.163a2.929 2.929 0 0 1 2.932.282l2.021 1.63a.646.646 0 0 0 .69.01l3.581-2.344a3.55 3.55 0 0 1 1.785-.483zm4.836-2.963l.032.018a.2.2 0 0 0-.032-.018z" transform="translate(-1049.999 -486.275)"/>
        </g>
    </g>
</svg>
