<svg xmlns="http://www.w3.org/2000/svg" width="17.263" height="15.935" viewBox="0 0 17.263 15.935">
    <defs>
        <style>
            .cls-1{fill:#3c9548}
        </style>
    </defs>
    <g id="Icon_ionic-ios-calendar" transform="translate(-3.375 -4.5)">
        <path id="Path_273" d="M18.978 6.75h-1.66v1a.333.333 0 0 1-.332.332h-.664a.333.333 0 0 1-.332-.332v-1H8.023v1a.333.333 0 0 1-.332.332h-.664a.333.333 0 0 1-.332-.332v-1h-1.66a1.665 1.665 0 0 0-1.66 1.66V19.7a1.665 1.665 0 0 0 1.66 1.66h13.943a1.665 1.665 0 0 0 1.66-1.66V8.41a1.665 1.665 0 0 0-1.66-1.66zm.332 12.45a.832.832 0 0 1-.83.83H5.533a.832.832 0 0 1-.83-.83v-7.47a.333.333 0 0 1 .332-.332h13.943a.333.333 0 0 1 .332.332z" class="cls-1" transform="translate(0 -.922)"/>
        <path id="Path_274" d="M10.328 4.832A.333.333 0 0 0 10 4.5h-.668A.333.333 0 0 0 9 4.832v1h1.328z" class="cls-1" transform="translate(-2.305)"/>
        <path id="Path_275" d="M26.078 4.832a.333.333 0 0 0-.332-.332h-.664a.333.333 0 0 0-.332.332v1h1.328z" class="cls-1" transform="translate(-8.76)"/>
    </g>
</svg>
