<svg xmlns="http://www.w3.org/2000/svg" width="13.402" height="25.484" viewBox="0 0 13.402 25.484">
    <path fill="#fff" d="M57.734 57.969c.682 0 1.368.037 2.047.068.443.018.887.082 1.3.127l-.031 4.1h-.326c-.45 0-.9-.006-1.35-.006-.338 0-.676 0-1.013.015-1.088.036-1.888.444-1.943 1.8-.035.978-.06 3.138-.061 3.252h4.529c-.221 1.576-.422 3.088-.642 4.61h-3.885l-.087 11.512H51.5l.088-11.53h-3.9l.035-4.584h3.923v-.344c.007-.924 0-1.848.031-2.772a11.46 11.46 0 0 1 .149-1.757 5.215 5.215 0 0 1 2.091-3.424 6 6 0 0 1 3.441-1.069q.186.002.376.002z" transform="translate(-47.682 -57.969)"/>
</svg>
