<svg xmlns="http://www.w3.org/2000/svg" width="22.562" height="22.552" viewBox="0 0 22.562 22.552">
    <defs>
        <style>
            .cls-1{fill:#fff}
        </style>
    </defs>
    <g id="icn-instagram">
        <g id="Group_356" transform="translate(15.987 3.922)">
            <path id="Path_3971" d="M223.85 65.016h.016a1.342 1.342 0 0 1 1.34 1.358 1.367 1.367 0 0 1-1.369 1.35 1.354 1.354 0 0 1 .013-2.708z" class="cls-1" transform="translate(-222.497 -65.016)"/>
        </g>
        <g id="Group_357">
            <path id="Path_3972" d="M222.961 65.29c.167 1.775.276 10.163-.246 12.129a5.774 5.774 0 0 1-4.98 4.511 55.758 55.758 0 0 1-6.222.251 38.332 38.332 0 0 1-6.268-.333 5.658 5.658 0 0 1-4.491-4.918c-.3-1.9-.335-10.743.214-12.663a5.753 5.753 0 0 1 4.916-4.384 43.962 43.962 0 0 1 5.653-.254c2.105 0 4.229.058 5.507.127a6.215 6.215 0 0 1 4.118 1.685 5.936 5.936 0 0 1 1.799 3.849zm-2.169 11.268a80.871 80.871 0 0 0 .139-11.078 3.794 3.794 0 0 0-3.378-3.6 51.693 51.693 0 0 0-5.64-.213c-2.246 0-4.482.061-5.465.167a3.865 3.865 0 0 0-3.6 3.4 76.894 76.894 0 0 0-.078 11.386 3.657 3.657 0 0 0 2.784 3.188 34.913 34.913 0 0 0 6.066.333c2.366 0 4.689-.074 5.563-.17a3.85 3.85 0 0 0 3.612-3.414" class="cls-1" transform="translate(-200.537 -59.628)"/>
        </g>
        <g id="Group_358" transform="translate(5.497 5.499)">
            <path id="Path_3973" d="M213.92 67.181a5.732 5.732 0 0 1 5.735 5.788 5.839 5.839 0 0 1-5.832 5.779 5.727 5.727 0 0 1-5.735-5.788 5.827 5.827 0 0 1 5.832-5.779zm-.084 9.52a3.778 3.778 0 0 0 3.772-3.7 3.7 3.7 0 0 0-3.676-3.778h-.032a3.777 3.777 0 0 0-3.772 3.7A3.708 3.708 0 0 0 213.8 76.7h.034" class="cls-1" transform="translate(-208.088 -67.181)"/>
        </g>
    </g>
</svg>
