<svg xmlns="http://www.w3.org/2000/svg" width="15.827" height="15.826" viewBox="0 0 15.827 15.826">
    <path fill="#222" d="M14.7 2.25H1.127A1.135 1.135 0 0 0 0 3.391v13.544a1.135 1.135 0 0 0 1.127 1.141H14.7a1.138 1.138 0 0 0 1.13-1.141V3.391A1.138 1.138 0 0 0 14.7 2.25zM4.783 15.815H2.438V8.262h2.349v7.552zM3.611 7.231a1.36 1.36 0 1 1 1.36-1.36 1.361 1.361 0 0 1-1.36 1.36zm9.966 8.584h-2.346v-3.674c0-.876-.018-2-1.219-2-1.222 0-1.41.954-1.41 1.939v3.737H6.257V8.262h2.25v1.032h.032a2.471 2.471 0 0 1 2.222-1.219c2.374 0 2.816 1.565 2.816 3.6z" transform="translate(0 -2.25)"/>
</svg>
