<svg xmlns="http://www.w3.org/2000/svg" width="19.147" height="18.725" viewBox="0 0 19.147 18.725">
    <path fill="#5cbe5e" d="M8.374 5.267L7 3.894a10.011 10.011 0 0 0-3.956 7.538h1.92a8.11 8.11 0 0 1 3.41-6.165zm11.9 6.165h1.92a10.072 10.072 0 0 0-3.956-7.538l-1.366 1.373a8.158 8.158 0 0 1 3.4 6.165zm-1.892.48c0-2.948-1.575-5.416-4.321-6.069V5.19a1.44 1.44 0 1 0-2.881 0v.653c-2.758.657-4.323 3.112-4.323 6.069v4.8l-1.92 1.92v.96H20.3v-.96l-1.92-1.92zm-5.763 10.563a1.682 1.682 0 0 0 .381-.039 1.948 1.948 0 0 0 1.385-1.136 1.928 1.928 0 0 0 .144-.749h-3.84a1.934 1.934 0 0 0 1.93 1.924z" transform="translate(-3.045 -3.75)"/>
</svg>
