<svg xmlns="http://www.w3.org/2000/svg" width="17.248" height="22.172" viewBox="0 0 17.248 22.172">
    <path fill="#fff" d="M13.087 16.205c-.583 3.053-1.294 5.98-3.4 7.508-.65-4.614.954-8.078 1.7-11.756-1.272-2.14.153-6.443 2.832-5.382 3.3 1.3-2.856 7.951 1.275 8.782 4.313.866 6.074-7.483 3.4-10.2-3.865-3.92-11.249-.09-10.34 5.525.221 1.372 1.638 1.788.566 3.683-2.473-.548-3.211-2.5-3.116-5.1.153-4.256 3.824-7.235 7.506-7.649 4.657-.522 9.028 1.711 9.632 6.09.68 4.945-2.1 10.3-7.083 9.916-1.35-.105-1.916-.775-2.973-1.418z" transform="translate(-5.996 -1.542)"/>
</svg>
