<svg xmlns="http://www.w3.org/2000/svg" width="64.241" height="64.035" viewBox="0 0 64.241 64.035">
    <defs>
        <style>
            .cls-1{fill:#3c9548;stroke:transparent}
        </style>
    </defs>
    <g id="icn-standard-120v-charging" transform="translate(-364.698 -1290.379)">
        <g id="Group_83" transform="translate(400.695 1320.278)">
            <g id="Group_82">
                <path id="Path_5655" d="M498.542 1434.583l-.354-2.106 1.053-.177a29.382 29.382 0 0 0 24.556-29.075c0-.347-.006-.7-.019-1.06l-.037-1.067 2.134-.074.037 1.067c.013.381.02.762.02 1.134a31.629 31.629 0 0 1-26.338 31.181z" class="cls-1" transform="translate(-498.188 -1401.024)"/>
            </g>
        </g>
        <g id="Group_85" transform="translate(418.348 1300.847)">
            <g id="Group_84">
                <path id="Path_5656" d="M573.224 1348.141a1.068 1.068 0 0 1-1.062-.972 29.193 29.193 0 0 0-7.557-17.158 1.067 1.067 0 1 1 1.579-1.437 31.311 31.311 0 0 1 8.1 18.4 1.068 1.068 0 0 1-.967 1.16c-.028.006-.061.007-.093.007z" class="cls-1" transform="translate(-564.327 -1328.225)"/>
            </g>
        </g>
        <g id="Group_87" transform="translate(415.195 1297.843)">
            <g id="Group_86">
                <path id="Path_5657" d="M553.726 1319.226a1.064 1.064 0 0 1-.686-.25l-.138-.115a1.068 1.068 0 1 1 1.361-1.646l.15.125a1.068 1.068 0 0 1-.687 1.885z" class="cls-1" transform="translate(-552.514 -1316.971)"/>
            </g>
        </g>
        <g id="Group_89" transform="translate(398.566 1290.986)">
            <g id="Group_88">
                <path id="Path_5658" d="M504.858 1298.054a1.062 1.062 0 0 1-.572-.167 29.481 29.481 0 0 0-13.1-4.475 1.068 1.068 0 1 1 .194-2.126 31.624 31.624 0 0 1 14.055 4.8 1.068 1.068 0 0 1-.575 1.968z" class="cls-1" transform="translate(-490.213 -1291.281)"/>
            </g>
        </g>
        <g id="Group_91" transform="translate(365.198 1290.879)">
            <g id="Group_90">
                <path id="Path_5659" d="M390.643 1352.541c-4.94 0-9.827-2.1-14.22-6.13-6.609-6.062-11.225-15.9-11.225-23.932a32.416 32.416 0 0 1 8.918-21.908 29.568 29.568 0 0 1 21.564-9.692 33.441 33.441 0 0 1 5.412.3l1.05.194-.388 2.1-1.05-.194a30.105 30.105 0 0 0-4.966-.269h-.056c-15.1.01-28.348 13.779-28.348 29.465 0 7.476 4.332 16.67 10.533 22.359 3.059 2.806 7.989 6.039 14.1 5.511 4.038-.349 4.145-2.266 4-6.568-.024-.727-.048-1.478-.042-2.253l.009-1.068 2.135.017-.008 1.067c-.006.731.018 1.461.041 2.166.126 3.856.27 8.228-5.955 8.765q-.752.07-1.504.07z" class="cls-1" transform="translate(-365.198 -1290.879)"/>
            </g>
        </g>
        <g id="Group_93" transform="translate(389.807 1306.62)">
            <g id="Group_92">
                <path id="Rectangle_24" d="M0 0H2.135V15.092H0z" class="cls-1"/>
            </g>
        </g>
        <g id="Group_95" transform="translate(402.482 1306.62)">
            <g id="Group_94">
                <path id="Rectangle_25" d="M0 0H2.135V15.092H0z" class="cls-1"/>
            </g>
        </g>
        <g id="Group_97" transform="translate(384.32 1320.558)">
            <g id="Group_96">
                <path id="Path_5660" d="M448.638 1422.524l-.018-2.135 1.068-.009a9.773 9.773 0 0 0 7.466-3.074c3.593-3.933 3.844-10.6 3.8-13.093l-24.114.033v-2.135l26.124-.036.082.98c.034.41.782 10.105-4.307 15.684a11.825 11.825 0 0 1-9.031 3.776z" class="cls-1" transform="translate(-436.838 -1402.075)"/>
            </g>
        </g>
        <g id="Group_99" transform="translate(387.508 1334.689)">
            <g id="Group_98">
                <path id="Path_5661" d="M457.835 1461.212a10.257 10.257 0 0 1-8.857-4.515 1.068 1.068 0 0 1 1.747-1.229 8.223 8.223 0 0 0 7.585 3.6 1.067 1.067 0 1 1 .082 2.133c-.192.007-.374.011-.557.011z" class="cls-1" transform="translate(-448.783 -1455.015)"/>
            </g>
        </g>
        <g id="Group_101" transform="translate(385.723 1331.685)">
            <g id="Group_100">
                <path id="Path_5662" d="M443.24 1446.11a1.068 1.068 0 0 1-1-.7l-.081-.226a1.068 1.068 0 0 1 2.015-.707l.072.2a1.068 1.068 0 0 1-1 1.434z" class="cls-1" transform="translate(-442.096 -1443.76)"/>
            </g>
        </g>
        <g id="Group_103" transform="translate(384.37 1321.046)">
            <g id="Group_102">
                <path id="Path_5663" d="M438.663 1413.216a1.068 1.068 0 0 1-1.045-.857 31.158 31.158 0 0 1-.555-7.464 1.068 1.068 0 0 1 2.13.145 29.543 29.543 0 0 0 .518 6.9 1.069 1.069 0 0 1-1.048 1.279z" class="cls-1" transform="translate(-437.026 -1403.9)"/>
            </g>
        </g>
    </g>
</svg>
