<svg xmlns="http://www.w3.org/2000/svg" width="15.827" height="15.826" viewBox="0 0 15.827 15.826">
    <path fill="#222" d="M14.131 2.25H1.7A1.7 1.7 0 0 0 0 3.946V16.38a1.7 1.7 0 0 0 1.7 1.7h12.431a1.7 1.7 0 0 0 1.7-1.7V3.946a1.7 1.7 0 0 0-1.7-1.696zM12.4 7.86c.007.1.007.2.007.3a6.547 6.547 0 0 1-6.592 6.592 6.562 6.562 0 0 1-3.558-1.039 4.882 4.882 0 0 0 .558.028 4.646 4.646 0 0 0 2.876-.989 2.32 2.32 0 0 1-2.166-1.607 2.5 2.5 0 0 0 1.05-.045A2.317 2.317 0 0 1 2.72 8.828V8.8a2.316 2.316 0 0 0 1.046.293 2.312 2.312 0 0 1-1.032-1.929 2.288 2.288 0 0 1 .314-1.169 6.579 6.579 0 0 0 4.777 2.423A2.322 2.322 0 0 1 11.778 6.3a4.54 4.54 0 0 0 1.47-.558 2.311 2.311 0 0 1-1.017 1.275 4.611 4.611 0 0 0 1.335-.36A4.877 4.877 0 0 1 12.4 7.86z" transform="translate(0 -2.25)"/>
</svg>
