<svg xmlns="http://www.w3.org/2000/svg" width="23.663" height="19.176" viewBox="0 0 23.663 19.176">
    <g>
        <path fill="#fff" d="M144.516 65.045a7.558 7.558 0 0 1-.549.743 9.181 9.181 0 0 1-1.77 1.675l-.082.154a13.1 13.1 0 0 1-.107 2.147 14.362 14.362 0 0 1-3.921 8.125A13.045 13.045 0 0 1 131.4 81.6a14.929 14.929 0 0 1-2.7.317q-.219.007-.437.007a13.568 13.568 0 0 1-7.292-2.09l-.117-.072a10.76 10.76 0 0 0 1.138.061 9.841 9.841 0 0 0 3.708-.723 9.611 9.611 0 0 0 2.311-1.349 4.8 4.8 0 0 1-4.476-3.36 4.72 4.72 0 0 0 .9.087 5.1 5.1 0 0 0 1.176-.141l.073-.036a4.818 4.818 0 0 1-3.823-4.792 4.77 4.77 0 0 0 2.152.58 4.851 4.851 0 0 1-1.413-6.439 13.72 13.72 0 0 0 9.943 5.063c-.026-.2-.051-.362-.077-.534a4.9 4.9 0 0 1 4.035-5.353 5.345 5.345 0 0 1 .881-.075 4.672 4.672 0 0 1 3.348 1.425.257.257 0 0 0 .178.083.3.3 0 0 0 .075-.011 9.56 9.56 0 0 0 2.825-1.077l.064-.036a4.777 4.777 0 0 1-2.058 2.636 9.367 9.367 0 0 0 2.702-.726z" transform="translate(-120.853 -62.751)"/>
    </g>
</svg>
