<svg xmlns="http://www.w3.org/2000/svg" width="210" height="62.199" viewBox="0 0 210 62.199">
    <defs>
        <style>
            .cls-1{fill:#f1f1f1}
        </style>
    </defs>
    <g id="logo" transform="translate(-618.977 814.161)">
        <g id="Group_1" transform="translate(711.57 -796.958)">
            <path id="Path_2" d="M991.013-724.3a11.287 11.287 0 0 1 3.219-2.176 8.251 8.251 0 0 1 3.1-.583 4.339 4.339 0 0 1 3.311 1.172 4 4 0 0 1 1.1 2.844 9.26 9.26 0 0 1-.2 1.931l-2.315 10.684h-6.268l1.5-6.944q.567-2.652.628-3.158a6.847 6.847 0 0 0 .062-.7q0-1.272-1.2-1.272a2.811 2.811 0 0 0-2.306 1.165 9.192 9.192 0 0 0-1.448 3.679l-1.548 7.235h-6.269l1.472-6.821q.582-2.743.651-3.249a6.189 6.189 0 0 0 .069-.766 1.1 1.1 0 0 0-1.257-1.242 3.04 3.04 0 0 0-2 .973 6.248 6.248 0 0 0-1.556 3.3l-1.686 7.8h-6.285l3.495-16.263h5.81l-.506 2.33.061.061a8.222 8.222 0 0 1 6.024-2.759 5.1 5.1 0 0 1 2.713.72 3.706 3.706 0 0 1 1.629 2.039z" class="cls-1" transform="translate(-971.791 732.713)"/>
            <path id="Path_3" d="M1100.748-727.057q4.369 0 6.369 2.207a7.447 7.447 0 0 1 2 5.166 10.306 10.306 0 0 1-1.149 4.583 8.693 8.693 0 0 1-3.456 3.694 10.984 10.984 0 0 1-5.679 1.364q-4.276 0-6.315-2.108a7.251 7.251 0 0 1-2.038-5.25 10.054 10.054 0 0 1 1.218-4.767 8.737 8.737 0 0 1 3.533-3.595 11.127 11.127 0 0 1 5.517-1.294zm-1.517 12.8a3.106 3.106 0 0 0 2.774-1.786 7.8 7.8 0 0 0 1.028-3.962 2.715 2.715 0 0 0-.782-2.215 2.68 2.68 0 0 0-1.732-.636 3.19 3.19 0 0 0-2.966 1.794 7.5 7.5 0 0 0-.989 3.663 3.312 3.312 0 0 0 .774 2.245 2.409 2.409 0 0 0 1.892.896z" class="cls-1" transform="translate(-1059.33 732.713)"/>
            <path id="Path_4" d="M1179.347-742.585l-.95 4.46h-3.266l-1.2 5.748a2.44 2.44 0 0 0-.123.781q0 1.1 1.456 1.1a12.888 12.888 0 0 0 1.931-.291l-.936 4.461a34.346 34.346 0 0 1-4.138.383 4.721 4.721 0 0 1-3.717-1.257 4.09 4.09 0 0 1-1.1-2.744 19.453 19.453 0 0 1 .445-2.621l1.165-5.564h-2.238l.92-4.46h2.284l.536-2.545 6.975-3.479-1.288 6.024z" class="cls-1" transform="translate(-1115.538 748.609)"/>
            <path id="Path_5" d="M1224.3-727.057q4.369 0 6.369 2.207a7.448 7.448 0 0 1 2 5.166 10.3 10.3 0 0 1-1.149 4.583 8.691 8.691 0 0 1-3.457 3.694 10.983 10.983 0 0 1-5.679 1.364q-4.277 0-6.315-2.108a7.252 7.252 0 0 1-2.039-5.25 10.048 10.048 0 0 1 1.219-4.767 8.733 8.733 0 0 1 3.533-3.595 11.125 11.125 0 0 1 5.518-1.294zm-1.517 12.8a3.107 3.107 0 0 0 2.775-1.786 7.8 7.8 0 0 0 1.027-3.962 2.715 2.715 0 0 0-.782-2.215 2.682 2.682 0 0 0-1.732-.636 3.192 3.192 0 0 0-2.966 1.794 7.506 7.506 0 0 0-.989 3.663 3.312 3.312 0 0 0 .774 2.245 2.409 2.409 0 0 0 1.895.896z" class="cls-1" transform="translate(-1150.459 732.713)"/>
            <path id="Path_6" d="M1301.993-726.566l-2.3 4.813a5.73 5.73 0 0 0-1.288-.169 3.675 3.675 0 0 0-2.912 1.288 9.33 9.33 0 0 0-1.732 4.123l-1.288 6.086h-6.254l3.464-16.263h5.84l-.72 3.2.061.061a10.777 10.777 0 0 1 2.56-2.9 4.275 4.275 0 0 1 2.422-.736 5.493 5.493 0 0 1 2.147.497z" class="cls-1" transform="translate(-1203.702 732.713)"/>
            <path id="Path_7" d="M1353.032-722.8l-5.84.629q-.26-1.472-2.192-1.472a2.954 2.954 0 0 0-1.717.414 1.18 1.18 0 0 0-.583.966 1.128 1.128 0 0 0 .514.943 7.809 7.809 0 0 0 2.751.7q3.6.536 4.79 1.617a3.717 3.717 0 0 1 1.188 2.889 5.262 5.262 0 0 1-2.33 4.292q-2.33 1.778-7.1 1.778a11.05 11.05 0 0 1-5.7-1.134 4.78 4.78 0 0 1-2.115-3.74l6.162-.536a2.336 2.336 0 0 0 2.606 1.977 3.64 3.64 0 0 0 1.816-.444 1.392 1.392 0 0 0 .789-1.272 1 1 0 0 0-.567-1.012 9.4 9.4 0 0 0-2.146-.506q-3.632-.567-4.92-1.717a3.719 3.719 0 0 1-1.287-2.9 4.778 4.778 0 0 1 .966-2.79 6.379 6.379 0 0 1 2.92-2.153 12.867 12.867 0 0 1 4.806-.79 10.56 10.56 0 0 1 5 .958 4.469 4.469 0 0 1 2.189 3.303z" class="cls-1" transform="translate(-1239.458 732.713)"/>
            <path id="Path_8" d="M1406.312-733.439a1.869 1.869 0 0 1 1.37.57 1.868 1.868 0 0 1 .57 1.371 1.862 1.862 0 0 1-.57 1.365 1.867 1.867 0 0 1-1.37.57 1.865 1.865 0 0 1-1.37-.57 1.862 1.862 0 0 1-.57-1.365 1.868 1.868 0 0 1 .57-1.371 1.867 1.867 0 0 1 1.37-.57zm0 3.5a1.509 1.509 0 0 0 1.1-.459 1.5 1.5 0 0 0 .46-1.1 1.506 1.506 0 0 0-.46-1.1 1.508 1.508 0 0 0-1.1-.46 1.511 1.511 0 0 0-1.106.46 1.5 1.5 0 0 0-.461 1.1 1.5 1.5 0 0 0 .461 1.1 1.512 1.512 0 0 0 1.106.459zm.909-.523h-.607a4.7 4.7 0 0 0-.387-.694.3.3 0 0 0-.217-.129.25.25 0 0 0-.061 0v.818h-.516v-2.078h.924q.749 0 .75.589 0 .46-.562.572v.01a.619.619 0 0 1 .368.328zm-1.272-1.2h.223q.4 0 .4-.259t-.383-.259h-.244z" class="cls-1" transform="translate(-1290.845 737.42)"/>
        </g>
        <g id="Group_6" transform="translate(618.977 -814.161)">
            <path id="Path_1" d="M663.517-814.161c-24.6 0-44.54 13.924-44.54 31.1s19.941 31.1 44.54 31.1 44.54-13.923 44.54-31.1-19.941-31.1-44.54-31.1zm0 60.052c-22 0-39.831-12.963-39.831-28.953s17.833-28.953 39.831-28.953 39.831 12.963 39.831 28.953-17.832 28.953-39.831 28.953z" class="cls-1" transform="translate(-618.977 814.161)"/>
            <g id="Group_4" transform="translate(6.876 8.614)">
                <path id="Path_9" d="M780.03-733.176v19.676h6.831v-17.9a.54.54 0 0 0-.072-.269 2.889 2.889 0 0 0-2.486-1.506z" class="cls-1" transform="translate(-744.64 745.816)"/>
                <g id="Group_2" transform="translate(43.788 12.64)">
                    <path id="Path_10" d="M812.03-717.176v15.48h6.831V-715.4a.539.539 0 0 0-.072-.269 2.889 2.889 0 0 0-2.486-1.506z" class="cls-1" transform="translate(-812.03 721.375)"/>
                    <path id="Path_11" d="M812.039-733.176v3.145h6.831v-1.369a.539.539 0 0 0-.072-.269 2.889 2.889 0 0 0-2.486-1.506z" class="cls-1" transform="translate(-812.037 733.176)"/>
                </g>
                <g id="Group_3" transform="translate(51.958 14.312)">
                    <path id="Path_12" d="M843.16-717.937a7.846 7.846 0 0 1 1.454-4.45 9.131 9.131 0 0 1 4.119-3.284 15.068 15.068 0 0 1 5.951-1.133 13 13 0 0 1 8.322 2.569 7.95 7.95 0 0 1 3.244 6.494 8.041 8.041 0 0 1-3.276 6.56 12.845 12.845 0 0 1-8.248 2.6 16.066 16.066 0 0 1-5.867-1.084 8.915 8.915 0 0 1-4.245-3.177 8.717 8.717 0 0 1-1.454-5.095zm6.067.246a4.991 4.991 0 0 0 1.58 3.974 5.717 5.717 0 0 0 3.9 1.379 5.679 5.679 0 0 0 3.888-1.379 5.052 5.052 0 0 0 1.569-4.007 4.969 4.969 0 0 0-1.569-3.941 5.679 5.679 0 0 0-3.888-1.38 5.716 5.716 0 0 0-3.9 1.38 4.992 4.992 0 0 0-1.58 3.974z" class="cls-1" transform="translate(-843.16 726.804)"/>
                </g>
                <path id="Path_13" d="M678.607-743.628c3.848-.079 8.232-1.192 11.143-4.186 2.209 1.4 5.214 3.215 9.075 5.534-5.326 3.432-12.448 5.473-20.547 5.473-10.76 0-18.922-3.24-24.682-9.089a38.715 38.715 0 0 1-8.417-13.1 42.891 42.891 0 0 1 8.53-13.218c5.771-5.784 14.073-9.123 24.762-9.123a37.251 37.251 0 0 1 20.233 5.578c-1.25.763-5.2 2.955-8.877 5.468a15.647 15.647 0 0 0-9.573-3.953c-6.206-.62-8.914.873-11.279 2.364a24.165 24.165 0 0 0-7.325 9.147s17.831-.067 17.557.077c-1.124 1.977-2.4 4.031-4.3 7.248h-13.295c1.571 3.039 3.969 6.892 6.88 8.914a17.68 17.68 0 0 0 10.115 2.866z" class="cls-1" transform="translate(-645.179 781.339)"/>
            </g>
        </g>
    </g>
</svg>
